#N canvas 577 25 876 781 12;
#X declare -path Abstractions;
#X obj 469 3 bng 19 250 50 0 empty empty empty 0 -10 0 12 #fcfcfc #000000 #000000;
#X obj 663 341 mtof;
#X obj 471 108 f 0;
#X obj 502 108 + 1;
#X obj 470 74 bng 15 250 50 0 empty empty empty 17 7 0 10 #fcfcfc #000000 #000000;
#X floatatom 471 129 5 0 0 0 - - - 0;
#X msg 495 73 0;
#X obj 469 26 tgl 15 0 empty empty empty 17 7 0 10 #fcfcfc #000000 #000000 0 1;
#X obj 471 155 % 8;
#X floatatom 471 175 5 0 0 0 - - - 0;
#X obj 444 239 bng 15 250 50 0 empty empty empty 17 7 0 10 #fcfcfc #000000 #000000;
#X obj 469 239 bng 15 250 50 0 empty empty empty 17 7 0 10 #fcfcfc #000000 #000000;
#X obj 492 239 bng 15 250 50 0 empty empty empty 17 7 0 10 #fcfcfc #000000 #000000;
#X obj 514 239 bng 15 250 50 0 empty empty empty 17 7 0 10 #fcfcfc #000000 #000000;
#X obj 539 239 bng 15 250 50 0 empty empty empty 17 7 0 10 #fcfcfc #000000 #000000;
#X obj 562 239 bng 15 250 50 0 empty empty empty 17 7 0 10 #fcfcfc #000000 #000000;
#X obj 587 239 bng 15 250 50 0 empty empty empty 17 7 0 10 #fcfcfc #000000 #000000;
#X obj 610 239 bng 15 250 50 0 empty empty empty 17 7 0 10 #fcfcfc #000000 #000000;
#X text 530 110 a counter;
#X text 527 74 reset the count;
#X msg 397 265 69;
#X msg 429 266 71;
#X msg 465 266 76;
#X msg 501 267 78;
#X msg 535 266 81;
#X msg 566 266 83;
#X msg 598 266 88;
#X msg 630 265 90;
#X obj 565 43 sel 0;
#X obj -2 -40 declare -path Abstractions;
#X obj 469 48 metro 800;
#X obj 471 204 sel 0 1 2 3 4 5 6 7 8 9 10 11 12 13 14 15, f 82;
#X obj 755 237 bng 15 250 50 0 empty empty empty 17 7 0 10 #fcfcfc #000000 #000000;
#X obj 780 237 bng 15 250 50 0 empty empty empty 17 7 0 10 #fcfcfc #000000 #000000;
#X obj 803 237 bng 15 250 50 0 empty empty empty 17 7 0 10 #fcfcfc #000000 #000000;
#X obj 825 237 bng 15 250 50 0 empty empty empty 17 7 0 10 #fcfcfc #000000 #000000;
#X obj 850 237 bng 15 250 50 0 empty empty empty 17 7 0 10 #fcfcfc #000000 #000000;
#X obj 873 237 bng 15 250 50 0 empty empty empty 17 7 0 10 #fcfcfc #000000 #000000;
#X obj 898 237 bng 15 250 50 0 empty empty empty 17 7 0 10 #fcfcfc #000000 #000000;
#X obj 921 237 bng 15 250 50 0 empty empty empty 17 7 0 10 #fcfcfc #000000 #000000;
#X msg 707 264 69;
#X msg 740 264 71;
#X msg 776 264 76;
#X msg 812 265 78;
#X msg 846 264 81;
#X msg 877 264 83;
#X msg 909 264 88;
#X msg 941 263 90;
#X text 779 48 Bass Patch;
#X connect 0 0 7 0;
#X connect 0 0 20 0;
#X connect 2 0 5 0;
#X connect 2 0 3 0;
#X connect 3 0 2 1;
#X connect 4 0 2 0;
#X connect 5 0 8 0;
#X connect 6 0 2 1;
#X connect 7 0 28 0;
#X connect 7 0 30 0;
#X connect 8 0 9 0;
#X connect 9 0 31 0;
#X connect 10 0 20 0;
#X connect 11 0 21 0;
#X connect 12 0 22 0;
#X connect 13 0 23 0;
#X connect 14 0 24 0;
#X connect 15 0 25 0;
#X connect 16 0 26 0;
#X connect 17 0 27 0;
#X connect 20 0 1 0;
#X connect 21 0 1 0;
#X connect 22 0 1 0;
#X connect 23 0 1 0;
#X connect 24 0 1 0;
#X connect 25 0 1 0;
#X connect 26 0 1 0;
#X connect 27 0 1 0;
#X connect 28 0 6 0;
#X connect 30 0 4 0;
#X connect 31 0 10 0;
#X connect 31 1 11 0;
#X connect 31 2 12 0;
#X connect 31 3 13 0;
#X connect 31 4 14 0;
#X connect 31 5 15 0;
#X connect 31 6 16 0;
#X connect 31 7 17 0;
#X connect 31 8 32 0;
#X connect 31 9 33 0;
#X connect 31 10 34 0;
#X connect 31 11 35 0;
#X connect 31 12 36 0;
#X connect 31 13 37 0;
#X connect 31 14 38 0;
#X connect 31 15 39 0;
#X connect 32 0 40 0;
#X connect 33 0 41 0;
#X connect 34 0 42 0;
#X connect 35 0 43 0;
#X connect 36 0 44 0;
#X connect 37 0 45 0;
#X connect 38 0 46 0;
#X connect 39 0 47 0;
#X connect 40 0 1 0;
#X connect 41 0 1 0;
#X connect 42 0 1 0;
#X connect 43 0 1 0;
#X connect 44 0 1 0;
#X connect 45 0 1 0;
#X connect 46 0 1 0;
#X connect 47 0 1 0;
